<svg width="852" height="812" viewBox="0 0 852 812" fill="none" xmlns="http://www.w3.org/2000/svg">
<path fill-rule="evenodd" clip-rule="evenodd" d="M554.196 182.797C554.64 183.055 555.243 183.241 555.956 183.614C558.276 189.193 559.154 190.833 558.698 191.387C558.325 191.843 558.369 191.596 558.15 192.72C557.876 194.251 563.239 200.866 564.062 202.967C564.825 204.733 564.894 206.721 564.254 208.535C563.002 212.105 561.062 215.394 558.545 218.217C556.417 220.609 554.07 222.128 552.035 221.667C549.523 221.119 549.951 218.848 550.324 216.621C550.461 215.825 551.969 214.064 551.854 213.28C551.185 208.815 547.917 204.915 545.52 201.047C543.464 199.133 539.998 197.12 538.078 194.904C535.336 191.7 534.788 188.321 538.226 186.374C539.323 185.748 542.065 182.638 543.502 182.759C546.227 182.978 550.768 180.789 554.196 182.797Z" fill="#202249"/>
<path fill-rule="evenodd" clip-rule="evenodd" d="M461.477 169.994C459.612 175.073 461.065 179.577 465.145 181.513L465.222 181.59L465.721 181.76C466.157 181.93 466.604 182.072 467.059 182.183C471.94 183.631 479.24 184.925 483.704 185.798C501.505 189.199 528.031 191.321 540.491 196.077C545.378 192.49 546.825 185.825 543.628 181.815C530.039 175.337 511.683 166.922 503.984 164.069C501.909 163.383 499.742 163.013 497.556 162.972C509.029 152.627 521.171 141.425 525.893 131.875C529.232 125.111 529.77 115.726 532.095 109.856C513.372 115.342 509.791 104.036 506.353 100.064C503.402 104.387 503.474 103.586 500.485 108.21C490.394 123.844 475.51 146.017 465.387 162.479C463.72 164.865 462.135 167.619 461.477 169.994Z" fill="url(#paint0_linear_8_110)"/>
<g style="mix-blend-mode:multiply" opacity="0.3">
<g style="mix-blend-mode:multiply">
<path fill-rule="evenodd" clip-rule="evenodd" d="M522.564 172.034C514.93 168.579 508.003 165.572 503.984 164.086C501.908 163.399 499.742 163.029 497.556 162.989C509.029 152.643 521.171 141.442 525.893 131.891C529.232 125.128 529.77 115.742 532.095 109.873C526.819 111.414 522.772 111.628 519.542 111.047L520.046 114.705C505.601 129.094 479.333 162.528 476.887 184.371C485.716 186.428 509.835 189.522 513.707 189.956C514.71 183.483 518.944 178.321 522.564 172.029V172.034ZM509.402 104.36C508.184 102.714 507.263 101.151 506.353 100.097C504.472 102.84 503.819 103.526 502.821 104.848L509.402 104.36Z" fill="#1E2353"/>
</g>
</g>
<path fill-rule="evenodd" clip-rule="evenodd" d="M520.233 255.294C522.86 258.941 515.769 277.236 514.041 281.075C512.522 284.476 513.005 286.561 516.608 286.616C519.449 286.66 523.957 282.633 526.704 280C531.854 275.063 532.15 270.033 533.647 267.894L535.402 267.345C536.685 266.621 540.48 261.662 540.688 259.786C540.148 258.047 539.494 256.344 538.731 254.69C535.928 249.512 535.314 251.777 531.601 248.612C527.406 251.679 530.395 252.896 520.233 255.294Z" fill="#202249"/>
<path fill-rule="evenodd" clip-rule="evenodd" d="M486.61 192.55C494.288 207.443 513.433 241.026 520.189 255.957C526.145 257.213 532.188 253.763 532.709 249.046C528.361 234.734 521.302 211.168 517.815 203.653C515.511 198.689 511.234 192.062 507.324 187.01C518.687 171.102 536.691 146.071 541.873 131.392C548.948 111.43 540.831 100.032 529.929 93.762C526.057 91.529 521.884 95.106 519.915 92.719C515.264 101.798 511.064 114.146 508.338 125.254C504.543 140.745 486.446 173.625 485.075 184.678C484.872 186.824 485.251 188.984 486.171 190.932C486.292 191.453 486.435 191.991 486.61 192.55Z" fill="url(#paint1_linear_8_110)"/>
<path opacity="0.3" fill-rule="evenodd" clip-rule="evenodd" d="M791.536 784.909L268.02 490.375C261.439 487.364 251.699 484.528 245.217 488.483L228.633 498.614C225.299 500.649 214.33 507.391 221.668 511.396C243.253 523.107 726.649 796.582 748.569 808.48C752.715 810.729 758.78 811.535 765.147 810.998C771.514 810.46 778.067 808.738 783.102 805.627L789.727 801.535C794.41 798.639 797.004 795.501 797.251 792.451C797.498 789.401 795.595 786.752 791.536 784.909Z" fill="#955CF1"/>
<path fill-rule="evenodd" clip-rule="evenodd" d="M328.065 10.459C324.456 8.40701 320.223 7.64501 316.263 9.14201L307.401 12.603C304.187 29.252 763.595 793.23 767.702 797.465L775.611 794.481C780.804 792.435 783.524 787.031 784.286 781.776L851.05 325.963C851.05 325.963 851.05 325.925 851.05 325.914C852.146 318.234 849.832 310.264 845.62 303.862C843.35 300.412 840.367 297.247 836.703 295.261L328.065 10.459Z" fill="url(#paint2_linear_8_110)"/>
<path fill-rule="evenodd" clip-rule="evenodd" d="M827.978 298.634L319.34 13.81C309.721 8.47798 300.557 13.596 298.862 25.204L232.099 481.05C230.399 492.657 236.799 506.404 246.418 511.736L755.056 796.538C764.675 801.87 773.861 796.763 775.561 785.155L842.319 329.337C844.019 317.708 837.597 303.994 827.978 298.634Z" fill="url(#paint3_linear_8_110)"/>
<path fill-rule="evenodd" clip-rule="evenodd" d="M827.978 298.634L319.34 13.81C309.721 8.47798 300.557 13.596 298.862 25.204L296.608 40.563L840.043 344.85L842.319 329.299C844.019 317.708 837.597 303.994 827.978 298.634Z" fill="#4A9FF8"/>
<path fill-rule="evenodd" clip-rule="evenodd" d="M316.175 25.176C320.014 26.059 322.998 30.662 322.795 35.44C322.592 40.218 319.301 43.388 315.446 42.505C311.591 41.622 308.624 37.02 308.827 32.242C309.03 27.464 312.32 24.293 316.175 25.176Z" fill="#5858F0"/>
<path fill-rule="evenodd" clip-rule="evenodd" d="M333.746 35.27C337.585 36.153 340.563 40.755 340.36 45.528C340.157 50.3 336.867 53.476 333.011 52.593C329.156 51.71 326.189 47.107 326.392 42.335C326.595 37.563 329.886 34.386 333.746 35.27Z" fill="#5858F0"/>
<path fill-rule="evenodd" clip-rule="evenodd" d="M352.743 46.35C356.582 47.234 359.565 51.836 359.363 56.614C359.16 61.392 355.869 64.562 352.008 63.679C348.148 62.796 345.192 58.194 345.395 53.416C345.598 48.638 348.904 45.467 352.743 46.35Z" fill="#5858F0"/>
<path style="mix-blend-mode:multiply" opacity="0.5" fill-rule="evenodd" clip-rule="evenodd" d="M766.123 456.65L674.753 406.474C669.45 403.539 664.262 403.123 659.946 404.829C654.385 407.023 650.228 412.618 649.027 420.813L638.673 495.142C636.534 509.728 644.574 527.002 656.661 533.711L748.037 583.881C760.129 590.584 771.668 584.166 773.812 569.58L784.166 495.252C786.283 480.627 778.21 463.353 766.123 456.65Z" fill="url(#paint4_linear_8_110)"/>
<path style="mix-blend-mode:multiply" opacity="0.5" fill-rule="evenodd" clip-rule="evenodd" d="M632.366 195.238L832.705 292.979L827.402 298.399L808.175 432.832C806.212 446.623 795.721 452.734 784.769 446.469L597.246 339.222L580.958 302.897L632.366 195.238Z" fill="url(#paint5_linear_8_110)"/>
<path style="mix-blend-mode:multiply" opacity="0.5" fill-rule="evenodd" clip-rule="evenodd" d="M380.789 402.651L256.931 333.978L252.79 340.297L232.455 478.867L360.739 549.992C374.318 557.518 387.277 550.31 389.679 533.93L401.031 445.975C403.433 429.612 394.368 410.177 380.789 402.651Z" fill="url(#paint6_linear_8_110)"/>
<path fill-rule="evenodd" clip-rule="evenodd" d="M375.31 433.035L360.503 530.277L362.851 530.562L369.256 528.071C376.281 525.329 379.966 517.989 380.997 510.88L391.878 426.562C391.88 426.538 391.88 426.515 391.878 426.491C393.353 416.118 390.233 405.322 384.529 396.655C381.463 391.987 377.4 387.708 372.464 385.02L115.759 242.677C110.873 239.901 105.153 238.87 99.795 240.894L94.146 243.088C91.306 244.185 90.423 245.008 90.445 245.189C93.105 270.05 379.067 407.544 375.31 433.035Z" fill="#D0E7FF"/>
<path fill-rule="evenodd" clip-rule="evenodd" d="M366.026 387.56L109.305 245.217C103.596 242.057 98.013 241.607 93.346 243.428C87.363 245.76 82.882 251.816 81.593 260.636L70.707 344.96C68.41 360.665 77.064 379.266 90.077 386.479L346.804 528.823C359.823 536.036 372.245 529.125 374.548 513.425L385.428 429.096C387.732 413.397 379.067 394.779 366.026 387.56Z" fill="url(#paint7_linear_8_110)"/>
<path opacity="0.5" fill-rule="evenodd" clip-rule="evenodd" d="M362.982 413.803L185.808 316.325C185.241 315.97 184.602 315.747 183.937 315.673C183.272 315.599 182.6 315.676 181.969 315.897C180.537 316.446 179.468 317.905 179.161 320.012L178.207 325.936C177.658 329.688 179.726 334.164 182.835 335.859L360.01 433.337C363.125 435.059 366.092 433.408 366.64 429.656L367.622 423.737C368.17 419.985 366.092 415.509 362.982 413.808V413.803ZM264.318 436.743C267.427 438.466 269.506 442.914 268.952 446.672L267.976 452.591C267.427 456.343 264.46 457.994 261.345 456.272L172.24 408.295C169.125 406.567 167.058 402.119 167.606 398.367L168.588 392.453C168.895 390.341 169.964 388.893 171.395 388.339C172.026 388.117 172.698 388.039 173.363 388.112C174.028 388.185 174.667 388.407 175.234 388.762L264.318 436.743ZM357.679 450.018C360.789 451.741 362.867 456.189 362.313 459.947L361.337 465.86C360.789 469.618 357.822 471.269 354.707 469.547L177.538 372.069C174.423 370.347 172.355 365.898 172.904 362.146L173.885 356.227C174.192 354.115 175.262 352.667 176.693 352.113C177.324 351.89 177.996 351.813 178.661 351.886C179.325 351.959 179.965 352.181 180.532 352.535L357.679 450.018Z" fill="#FFFCF1"/>
<path opacity="0.5" fill-rule="evenodd" clip-rule="evenodd" d="M129.343 314.603C120.964 309.957 112.074 316.221 112.167 328.317C112.206 334.598 114.871 341.054 119.066 345.108C120.086 346.096 121.227 346.951 122.461 347.653C130.824 352.288 139.67 346.007 139.61 333.939C139.61 327.653 136.944 321.164 132.765 317.126C131.741 316.126 130.59 315.263 129.343 314.559V314.603ZM121.265 353.363C119.608 352.424 118.076 351.277 116.708 349.951C111.054 344.521 107.511 335.815 107.423 327.368C107.325 311.109 119.253 302.683 130.511 308.898C132.199 309.846 133.753 311.014 135.135 312.37C140.772 317.79 144.315 326.49 144.353 334.943C144.425 351.158 132.513 359.595 121.265 353.363ZM159.627 339.54C161.584 340.637 162.752 343.484 162.226 345.942L160.175 355.47C159.654 357.895 157.641 358.986 155.678 357.9L154.674 357.351C154.345 357.15 153.979 357.018 153.597 356.964C153.214 356.91 152.825 356.935 152.454 357.038C152.082 357.141 151.735 357.319 151.435 357.562C151.135 357.805 150.888 358.106 150.709 358.449C150.152 359.383 149.542 360.286 148.883 361.153C147.863 362.491 147.699 364.636 148.477 366.545L149.026 367.84C150.035 370.303 149.432 373.106 147.693 374.049L140.794 377.774C140.359 378 139.873 378.11 139.383 378.092C138.893 378.075 138.415 377.931 137.997 377.675C136.972 377.052 136.185 376.104 135.76 374.982L135.211 373.72C134.796 372.614 134.024 371.678 133.018 371.06C132.517 370.775 131.949 370.629 131.372 370.637C130.396 370.637 129.404 370.604 128.428 370.517C126.848 370.363 125.532 371.482 125.137 373.342L124.874 374.587C124.325 377.012 122.335 378.103 120.371 377.017L112.694 372.755C110.73 371.658 109.568 368.811 110.089 366.381L110.357 365.141C110.54 364.172 110.5 363.175 110.24 362.224C109.979 361.274 109.506 360.395 108.855 359.655C108.027 358.745 107.253 357.801 106.486 356.83C106.092 356.3 105.593 355.855 105.021 355.525C104.611 355.275 104.144 355.134 103.664 355.116C103.184 355.097 102.707 355.202 102.279 355.421L101.38 355.881C100.946 356.11 100.46 356.221 99.969 356.205C99.479 356.188 99.001 356.045 98.583 355.788C97.555 355.168 96.767 354.219 96.346 353.095L92.249 343.325C91.245 340.867 91.849 338.059 93.582 337.121L94.497 336.627C95.847 335.892 96.538 334.044 96.252 331.981C96.066 330.67 95.94 329.359 95.857 328.042C95.731 326.013 94.657 324.087 93.154 323.253L92.15 322.705C90.187 321.608 89.024 318.772 89.545 316.336L91.596 306.813C92.145 304.35 94.136 303.264 96.099 304.35L97.102 304.899C97.431 305.102 97.798 305.236 98.18 305.29C98.563 305.345 98.952 305.32 99.325 305.217C99.697 305.114 100.044 304.935 100.344 304.692C100.644 304.448 100.89 304.145 101.067 303.802C101.625 302.867 102.235 301.964 102.894 301.098C103.908 299.786 104.073 297.647 103.288 295.727L102.74 294.438C101.742 291.953 102.34 289.172 104.084 288.207L110.977 284.476C111.412 284.25 111.899 284.141 112.389 284.158C112.879 284.176 113.356 284.319 113.774 284.575C114.802 285.195 115.59 286.144 116.012 287.269L116.56 288.558C116.974 289.663 117.746 290.598 118.754 291.213C119.253 291.502 119.822 291.65 120.399 291.64C121.383 291.613 122.369 291.646 123.349 291.739C124.923 291.915 126.234 290.801 126.64 288.936L126.908 287.691C127.457 285.239 129.453 284.147 131.411 285.239L139.089 289.501C141.046 290.598 142.215 293.44 141.683 295.897L141.419 297.137C141.235 298.098 141.273 299.089 141.531 300.033C141.788 300.977 142.259 301.85 142.906 302.584C143.734 303.495 144.551 304.455 145.291 305.448C145.684 305.979 146.182 306.424 146.755 306.753C147.166 307.002 147.633 307.142 148.113 307.16C148.593 307.178 149.069 307.074 149.497 306.857L150.408 306.364C150.843 306.139 151.33 306.03 151.82 306.048C152.31 306.066 152.787 306.211 153.205 306.468C154.232 307.086 155.02 308.033 155.442 309.156L159.44 318.925C160.438 321.41 159.84 324.197 158.102 325.162L157.186 325.651C155.837 326.386 155.146 328.234 155.437 330.275C155.618 331.58 155.755 332.897 155.837 334.208C155.958 336.243 157.033 338.163 158.535 338.997L159.627 339.54Z" fill="#FFFCF1"/>
<path style="mix-blend-mode:multiply" opacity="0.5" fill-rule="evenodd" clip-rule="evenodd" d="M351.828 81.09L296.438 54.299L274.568 191.179L271.754 210.411L329.337 241.503C339.346 247.049 348.899 241.739 350.67 229.66L366.733 113.032C368.521 100.959 361.836 86.641 351.828 81.09Z" fill="url(#paint8_linear_8_110)"/>
<path fill-rule="evenodd" clip-rule="evenodd" d="M345.066 113.647L327.796 225.222L329.606 225.441L334.542 223.527C339.938 221.404 342.768 215.776 343.569 210.307L357.827 108.671C357.829 108.653 357.829 108.635 357.827 108.616C358.957 100.64 356.56 92.335 352.173 85.676C349.815 82.083 346.689 78.792 342.9 76.724L236.941 19.126C233.185 16.992 228.781 16.202 224.662 17.754L220.319 19.449C218.125 20.272 217.456 20.93 217.473 21.068C219.524 40.174 347.95 94.041 345.066 113.647Z" fill="#D0E7FF"/>
<path fill-rule="evenodd" clip-rule="evenodd" d="M337.936 78.676L231.984 21.079C227.596 18.649 223.297 18.303 219.71 19.702C215.109 21.496 211.665 26.153 210.672 32.938L196.414 134.579C194.648 146.647 201.3 160.954 211.309 166.505L317.267 224.103C327.275 229.649 336.829 224.333 338.6 212.26L352.859 110.619C354.624 98.54 347.945 84.222 337.936 78.676Z" fill="url(#paint9_linear_8_110)"/>
<path fill-rule="evenodd" clip-rule="evenodd" d="M318.309 196.9L211.857 139.747C209.4 138.43 207.058 139.785 206.581 142.835C206.115 145.786 207.711 149.253 210.168 150.575L316.614 207.729C319.066 209.045 321.462 207.729 321.939 204.657C322.394 201.717 320.76 198.222 318.309 196.9ZM323.063 165.962C325.515 167.278 327.155 170.778 326.694 173.718C326.217 176.768 323.826 178.107 321.369 176.785L214.928 119.637C212.471 118.315 210.875 114.842 211.336 111.897C211.813 108.847 214.16 107.508 216.617 108.808L323.063 165.962ZM334.032 95.797L227.585 38.649C225.129 37.327 222.781 38.687 222.326 41.633L221.125 49.197C220.67 52.143 222.266 55.615 224.717 56.937L331.163 114.085C333.609 115.402 336 114.085 336.467 111.123L337.646 103.553C338.112 100.619 336.467 97.119 334.015 95.797H334.032ZM327.868 135.292C330.319 136.609 331.964 140.059 331.509 143.005C331.021 146.104 328.641 147.394 326.189 146.066L219.743 88.912C217.286 87.601 215.685 84.173 216.14 81.233C216.628 78.133 218.97 76.844 221.421 78.139L327.868 135.292Z" fill="#FFFCF1"/>
<path fill-rule="evenodd" clip-rule="evenodd" d="M761.308 491.275L748.695 568.977L750.658 569.218L756.016 567.139C761.89 564.824 764.972 558.708 765.833 552.762L775.156 485.839C775.158 485.818 775.158 485.798 775.156 485.778C776.384 477.106 773.779 468.076 769.008 460.83C766.441 456.93 763.069 453.348 758.923 451.099L676.661 405.937C672.576 403.616 667.794 402.755 663.308 404.445L658.586 406.288C656.211 407.182 655.476 407.895 655.493 408.043C657.741 428.844 764.423 469.958 761.308 491.275Z" fill="#D0E7FF"/>
<path fill-rule="evenodd" clip-rule="evenodd" d="M753.532 453.249L671.27 408.081C666.499 405.437 661.827 405.064 657.922 406.584C652.92 408.537 649.147 413.6 648.1 420.972L638.777 487.896C636.858 501.028 644.091 516.579 654.977 522.619L737.238 567.781C748.124 573.815 758.511 568.039 760.436 554.907L769.759 487.983C771.684 474.851 764.418 459.283 753.532 453.249Z" fill="white"/>
<path fill-rule="evenodd" clip-rule="evenodd" d="M717.704 457.89C718.313 459.072 718.55 460.411 718.384 461.73C718.052 463.409 717.55 465.05 716.887 466.628L699.338 515.318C698.789 516.963 698.241 518.181 697.879 519.07C697.742 519.445 697.531 519.788 697.259 520.081C696.986 520.373 696.658 520.607 696.294 520.77C695.685 521.039 694.846 520.853 693.766 520.183C691.139 518.538 689.976 516.256 690.306 513.469C690.66 511.744 691.143 510.047 691.753 508.395L709.231 459.678C710.131 457.095 710.92 455.421 711.584 454.648C712.247 453.875 713.322 453.957 714.803 454.867C716.035 455.58 717.035 456.633 717.682 457.901L717.704 457.89ZM722.382 470.507L720.775 484.05L746.671 514.089L717.644 510.414L716.031 524.012L757.798 527.304L759.169 515.784L722.371 470.534L722.382 470.507ZM649.378 460.177L686.176 505.471L687.788 491.873L662.013 461.642L690.903 465.564L692.549 451.85L650.771 448.515L649.378 460.177Z" fill="url(#paint10_linear_8_110)"/>
<path fill-rule="evenodd" clip-rule="evenodd" d="M438.35 460.945C439.825 450.83 447.53 446.365 455.548 450.984L574.761 518.225C582.774 522.844 588.082 534.808 586.601 544.923L570.747 652.872C569.266 662.982 561.556 667.447 553.543 662.834L434.33 595.593C426.307 590.968 421.009 579.01 422.49 568.895L438.35 460.945Z" fill="white"/>
<path fill-rule="evenodd" clip-rule="evenodd" d="M452.855 570.979L494.441 513.359L502.503 574.457L522.761 552.433L534.695 617.765L452.855 570.979Z" fill="url(#paint11_linear_8_110)"/>
<path fill-rule="evenodd" clip-rule="evenodd" d="M521.363 515.916C525.805 516.821 529.156 522.026 528.837 527.545C528.519 533.063 524.659 536.799 520.211 535.894C515.763 534.989 512.418 529.783 512.731 524.265C513.043 518.746 516.915 515.01 521.363 515.916Z" fill="#FFDB59"/>
<path opacity="0.2" fill-rule="evenodd" clip-rule="evenodd" d="M448.029 476.393C449.263 467.989 455.658 464.275 462.321 468.12L561.375 523.963C568.032 527.803 572.442 537.742 571.213 546.146L558.051 635.834C556.823 644.238 550.412 647.946 543.754 644.112L444.706 588.242C438.037 584.402 433.639 574.463 434.868 566.059L448.029 476.393Z" fill="url(#paint12_linear_8_110)"/>
<path fill-rule="evenodd" clip-rule="evenodd" d="M599.237 554.413C600.712 544.298 608.417 539.832 616.435 544.451L735.648 611.693C743.66 616.312 748.969 628.275 747.488 638.391L731.634 746.335C730.153 756.444 722.442 760.91 714.43 756.291L595.217 689.077C587.194 684.453 581.896 672.494 583.377 662.379L599.237 554.413Z" fill="white"/>
<path fill-rule="evenodd" clip-rule="evenodd" d="M613.742 664.447L655.328 606.827L663.39 667.925L683.648 645.9L695.581 711.233L613.742 664.447Z" fill="url(#paint13_linear_8_110)"/>
<path fill-rule="evenodd" clip-rule="evenodd" d="M682.249 609.383C686.692 610.288 690.042 615.494 689.724 621.013C689.406 626.531 685.545 630.267 681.098 629.361C676.65 628.456 673.305 623.251 673.623 617.732C673.941 612.214 677.802 608.478 682.249 609.383Z" fill="#FFDB59"/>
<path opacity="0.2" fill-rule="evenodd" clip-rule="evenodd" d="M608.922 569.86C610.15 561.456 616.545 557.743 623.18 561.588L722.234 617.452C728.892 621.292 733.301 631.232 732.072 639.636L718.911 729.324C717.682 737.728 711.277 741.436 704.614 737.602L605.56 681.732C598.891 677.892 594.493 667.952 595.722 659.554L608.922 569.86Z" fill="url(#paint14_linear_8_110)"/>
<path fill-rule="evenodd" clip-rule="evenodd" d="M418.986 11.89C408.374 18.116 413.458 32.51 423.099 47.727C436.776 69.313 403.669 93.614 448.671 105.907C443.982 92.741 463.478 87.909 473.07 69.916C484.126 49.159 478.006 28.341 463.791 10.607C452.225 -3.83098 431.067 -3.64999 418.986 11.89Z" fill="url(#paint15_linear_8_110)"/>
<path fill-rule="evenodd" clip-rule="evenodd" d="M439.995 148.299L442.589 158.085C443.406 160.18 443.894 160.745 446.905 159.385C448.55 158.589 448.002 155.161 447.574 152.66C447.175 150.616 447.214 148.51 447.689 146.483C448.026 145.445 448.688 144.543 449.576 143.91C451.375 142.468 453.481 141.502 452.186 136.911C451.506 134.514 451.671 132.725 451.638 130.24L445.364 129.823C445.512 135.424 443.028 139.198 440.428 143.905C439.167 146.181 439.441 145.753 439.995 148.299Z" fill="url(#paint16_linear_8_110)"/>
<path fill-rule="evenodd" clip-rule="evenodd" d="M462.321 86.186L462.277 85.873C462.268 85.419 462.202 84.967 462.08 84.53C460.484 73.888 457.248 55.956 454.726 46.603C450.338 30.267 436.348 35.911 436.491 45.659C436.628 54.88 445.205 74.848 447.18 83.509C446.478 89.812 443.845 121.288 444.756 126.79C444.931 127.838 445.392 128.518 445.337 129.67C445.299 130.547 445.063 130.893 444.789 131.946C447.263 132.238 449.721 132.654 452.154 133.192C452.208 132.367 452.331 131.549 452.521 130.745C452.943 129.56 454.029 128.951 454.517 127.953C456.925 123.016 460.906 97.141 462.003 88.72C462.213 87.892 462.319 87.041 462.321 86.186Z" fill="url(#paint17_linear_8_110)"/>
<g style="mix-blend-mode:multiply" opacity="0.35">
<g style="mix-blend-mode:multiply">
<path fill-rule="evenodd" clip-rule="evenodd" d="M460.495 96.148C461.433 93.888 462.491 86.823 462.48 83.718C462.48 77.228 460.007 71.864 459.25 67.744L436.59 45.188C436.738 49.411 441.662 60.668 443.686 68.973C446.834 81.935 453.694 93.098 460.495 96.148Z" fill="#3469C0"/>
</g>
</g>
<path fill-rule="evenodd" clip-rule="evenodd" d="M530.587 97.684C527.39 108.249 512.391 116.57 497.364 113.263C493.778 109.269 492.708 110.52 489.429 107.294C486.44 104.365 482.755 100.361 477.6 95.128C474.732 90.629 463.423 88.786 458.405 86.828C452.762 84.634 447.761 80.004 445.43 71.046C444.3 66.702 439.398 53.41 437.61 48.978C432.493 36.164 443.593 31.38 451.101 36.12C455.905 38.128 466.505 40.645 471.743 41.605C474.771 42.222 477.83 42.678 480.907 42.971C487.142 43.575 493.909 48.128 498.752 51.984C511.782 62.363 529.441 83.197 530.587 97.684Z" fill="url(#paint18_linear_8_110)"/>
<path fill-rule="evenodd" clip-rule="evenodd" d="M455.252 30.953C456.762 36.716 459.857 41.94 464.186 46.032C462.595 51.715 451.748 55.813 448.282 51.973C448.013 51.211 447.651 49.51 447.278 48.956C446.73 47.31 446.143 45.829 445.633 44.655L455.252 30.953Z" fill="url(#paint19_linear_8_110)"/>
<path fill-rule="evenodd" clip-rule="evenodd" d="M423.74 23.35C424.289 27.672 425.649 31.32 429.373 35.039C430.137 35.739 430.682 36.646 430.941 37.65C432.356 42.812 433.464 43.865 436.776 46.23C439.995 48.523 441.202 50.113 443.039 50.305C444.876 50.497 446.664 49.483 448.046 48.495C450.876 46.466 454.046 40.925 455.532 37.266C456.629 34.557 455.949 33.876 455.252 31.304C456.069 26.57 452.795 26.268 451.704 26.855C448.578 28.533 450.678 31.995 449.642 33.986C438.652 36.416 427.278 26.559 423.74 23.35Z" fill="#FFA698"/>
<path fill-rule="evenodd" clip-rule="evenodd" d="M423.74 23.35C429.844 33.52 443.286 36.087 449.642 33.991C438.652 36.416 427.278 26.559 423.74 23.35Z" fill="#FF9080"/>
<g style="mix-blend-mode:multiply" opacity="0.35">
<g style="mix-blend-mode:multiply">
<path fill-rule="evenodd" clip-rule="evenodd" d="M494.781 110.652C494.69 110.678 494.596 110.696 494.502 110.706C492.857 109.609 491.634 109.472 489.413 107.294C486.424 104.365 482.738 100.361 477.583 95.128C476.119 92.835 472.467 91.233 468.573 89.949C469.187 79.433 468.919 55.39 472.363 52.275C477.123 47.958 483.665 45.089 489.133 50.706C499.465 61.304 489.193 100.542 494.781 110.652Z" fill="#3469C0"/>
</g>
</g>
<path fill-rule="evenodd" clip-rule="evenodd" d="M480.248 124.782L473.711 100.191L478.23 96.164L519.465 119.319L515.632 123.619L497.715 135.611L480.248 124.782Z" fill="#4A9FF8"/>
<path fill-rule="evenodd" clip-rule="evenodd" d="M473.733 100.262L470.728 90.662L522.202 119.231L515.577 123.669L473.733 100.262Z" fill="#D0E7FF"/>
<path style="mix-blend-mode:multiply" opacity="0.5" fill-rule="evenodd" clip-rule="evenodd" d="M389.487 158.447C392.152 138.743 407.096 130.257 422.863 139.538L585.664 234.619C601.414 243.889 612.037 267.416 609.366 287.12L584.55 474.933C581.885 494.637 566.919 503.112 551.174 493.842L388.352 398.762C372.585 389.48 361.979 365.964 364.649 346.26L389.487 158.447Z" fill="url(#paint20_linear_8_110)"/>
<path fill-rule="evenodd" clip-rule="evenodd" d="M395.234 157.361C395.525 155.232 395.942 145.72 398.525 143.784C401.974 141.173 408.259 137.371 410.118 136.872C414.966 135.578 420.538 136.433 426.28 139.791L578.408 227.976C593.04 236.588 602.911 258.448 600.432 276.758L577.399 451.28C576.533 457.67 574.273 462.799 571.076 466.387C568.915 468.817 563.859 472.213 559.642 474.396C555.255 476.645 549.151 470.479 546.381 468.85L394.203 380.665C379.55 372.047 369.695 350.193 372.179 331.888L395.234 157.361Z" fill="#D0E7FF"/>
<path fill-rule="evenodd" clip-rule="evenodd" d="M389.882 161.102C392.36 142.797 406.246 134.914 420.894 143.548L572.173 231.903C586.804 240.516 596.676 262.375 594.197 280.686L571.164 455.207C568.68 473.513 554.777 481.39 540.146 472.761L388.845 384.406C374.197 375.788 364.342 353.934 366.821 335.629L389.882 161.102Z" fill="white"/>
<path fill-rule="evenodd" clip-rule="evenodd" d="M389.882 161.102C392.36 142.797 406.246 134.914 420.894 143.548L572.173 231.903C586.804 240.516 596.676 262.375 594.197 280.686L591.85 298.009L387.49 178.661L389.882 161.102Z" fill="url(#paint21_linear_8_110)"/>
<path fill-rule="evenodd" clip-rule="evenodd" d="M414.203 161.788C417.532 162.577 420.077 166.571 419.885 170.707C419.693 174.843 416.836 177.553 413.502 176.741C410.167 175.929 407.628 171.958 407.82 167.822C408.012 163.685 410.875 160.998 414.203 161.788Z" fill="white"/>
<path fill-rule="evenodd" clip-rule="evenodd" d="M431.983 172.89C435.317 173.68 437.862 177.674 437.67 181.81C437.478 185.946 434.621 188.655 431.287 187.844C427.952 187.032 425.408 183.06 425.605 178.924C425.802 174.788 428.654 172.089 431.983 172.89Z" fill="white"/>
<path fill-rule="evenodd" clip-rule="evenodd" d="M449.768 183.965C453.102 184.755 455.647 188.754 455.455 192.885C455.263 197.015 452.406 199.736 449.071 198.919C445.737 198.102 443.193 194.136 443.384 189.999C443.576 185.863 446.439 183.175 449.768 183.965Z" fill="white"/>
<path opacity="0.2" fill-rule="evenodd" clip-rule="evenodd" d="M421.969 213.335C437.412 216.999 449.208 235.507 448.293 254.674C447.377 273.84 434.155 286.407 418.711 282.743C403.268 279.079 391.472 260.576 392.388 241.41C393.304 222.243 406.526 209.671 421.969 213.335Z" fill="url(#paint22_linear_8_110)"/>
<path fill-rule="evenodd" clip-rule="evenodd" d="M421.223 229.331C429.554 231.305 435.91 241.284 435.427 251.618C434.944 261.953 427.804 268.728 419.479 266.753C411.154 264.778 404.793 254.8 405.275 244.465C405.758 234.13 412.898 227.356 421.223 229.331Z" fill="url(#paint23_linear_8_110)"/>
<path opacity="0.2" fill-rule="evenodd" clip-rule="evenodd" d="M457.605 250.527C458.153 246.451 461.235 244.75 464.487 246.725L563.365 303.736C566.612 305.711 568.8 310.62 568.252 314.707L567.155 322.76C566.606 326.83 563.519 328.531 560.272 326.561L461.416 269.534C458.169 267.559 455.981 262.65 456.535 258.563L457.605 250.527Z" fill="#955CF1"/>
<path opacity="0.2" fill-rule="evenodd" clip-rule="evenodd" d="M453.651 280.148C453.974 277.746 455.795 276.742 457.715 277.905L516.104 311.575C518.023 312.738 519.312 315.64 518.988 318.042L518.358 322.798C518.029 325.201 516.208 326.21 514.288 325.042L455.921 291.377C454.002 290.209 452.713 287.312 453.037 284.904L453.651 280.148Z" fill="#955CF1"/>
<path opacity="0.2" fill-rule="evenodd" clip-rule="evenodd" d="M387.671 287.702C388.072 284.74 390.315 283.495 392.684 284.959L563.448 382.958C565.811 384.395 567.407 387.972 567.007 390.934L566.458 394.818C566.058 397.785 563.81 399.025 561.446 397.588L390.699 299.567C388.33 298.13 386.739 294.553 387.14 291.591L387.671 287.702Z" fill="#955CF1"/>
<path opacity="0.2" fill-rule="evenodd" clip-rule="evenodd" d="M384.101 316.446C384.502 313.484 386.745 312.239 389.114 313.703L559.878 411.674C562.241 413.112 563.837 416.688 563.437 419.656L562.888 423.54C562.488 426.507 560.24 427.747 557.876 426.282L387.129 328.311C384.76 326.874 383.169 323.297 383.569 320.33L384.101 316.446Z" fill="#955CF1"/>
<path opacity="0.2" fill-rule="evenodd" clip-rule="evenodd" d="M380.361 343.83C380.762 340.862 383.005 339.622 385.374 341.087L556.137 439.086C558.501 440.523 560.097 444.099 559.696 447.061L559.148 450.945C558.748 453.913 556.499 455.153 554.136 453.688L383.388 355.689C381.019 354.252 379.429 350.676 379.829 347.713L380.361 343.83Z" fill="#955CF1"/>
<path fill-rule="evenodd" clip-rule="evenodd" d="M601.003 141.469C601.551 137.673 599.012 134.744 600.663 132.232C602.445 129.489 608.499 127.563 611.121 126.62C614.833 125.281 619.21 125.715 623.663 128.265L805.296 232.134C815.902 238.201 822.971 253.977 821.074 267.334L800.684 409.864C799.752 416.408 796.845 421.17 792.858 423.605C790.429 425.097 783.771 427.944 780.755 427.577C778.638 427.319 780.25 424.346 778.013 423.073L596.38 319.194C585.762 313.122 578.704 297.351 580.607 283.999L601.003 141.469Z" fill="#D0E7FF"/>
<path fill-rule="evenodd" clip-rule="evenodd" d="M595.557 143.641C597.46 130.284 607.622 124.36 618.223 130.438L799.856 234.328C810.462 240.395 817.531 256.171 815.628 269.528L795.244 412.058C793.341 425.41 783.179 431.335 772.572 425.262L590.939 321.383C580.322 315.31 573.264 299.54 575.167 286.182L595.557 143.641Z" fill="url(#paint24_linear_8_110)"/>
<path fill-rule="evenodd" clip-rule="evenodd" d="M581.43 292.716C581.594 291.558 582.477 291.07 583.393 291.619L784.89 407.154C785.373 407.502 785.754 407.973 785.994 408.518C786.233 409.063 786.321 409.663 786.25 410.254L785.701 413.77C785.537 414.933 784.659 415.416 783.738 414.867L582.285 299.337C581.8 298.989 581.417 298.518 581.177 297.972C580.937 297.425 580.848 296.824 580.92 296.232L581.43 292.716Z" fill="#6D6AFD"/>
<path fill-rule="evenodd" clip-rule="evenodd" d="M581.551 292.825C581.71 291.728 582.56 291.229 583.443 291.767L664.7 338.355C665.167 338.69 665.534 339.144 665.765 339.67C665.996 340.196 666.081 340.775 666.011 341.345L665.501 344.735C665.337 345.832 664.492 346.331 663.604 345.799L582.351 299.211C581.884 298.877 581.514 298.423 581.283 297.896C581.051 297.37 580.966 296.792 581.035 296.221L581.551 292.825Z" fill="#B269EB"/>
<path fill-rule="evenodd" clip-rule="evenodd" d="M661.185 224.245C661.64 221.064 664.053 219.654 666.576 221.102L722.514 253.094C725.036 254.537 726.715 258.289 726.265 261.47L718.719 314.68C718.269 317.861 715.85 319.266 713.328 317.823L657.39 285.831C654.862 284.389 653.184 280.637 653.633 277.455L661.185 224.245Z" fill="url(#paint25_linear_8_110)"/>
<path fill-rule="evenodd" clip-rule="evenodd" d="M693.086 247.4C683.407 241.865 674.16 247.257 672.427 259.441C670.694 271.624 677.122 285.99 686.807 291.531C696.492 297.071 705.727 291.673 707.46 279.463C709.193 267.252 702.76 252.935 693.086 247.4Z" fill="url(#paint26_linear_8_110)"/>
<path fill-rule="evenodd" clip-rule="evenodd" d="M684.131 253.319L681.076 275.36L699.749 275.87L684.131 253.319Z" fill="white"/>
<path fill-rule="evenodd" clip-rule="evenodd" d="M466.631 140.586C465.047 143.241 465.88 148.979 465.365 151.711C464.806 154.439 463.992 157.11 462.935 159.687C462.601 160.394 452.071 169.752 451.457 169.281C450.069 168.184 449.17 160.822 450.991 158.672C452.812 156.521 454.353 154.426 454.66 152.665C454.967 150.904 454.874 145.068 455.636 144.163C457.363 142.122 459.168 141.475 459.941 138.924L466.631 140.586Z" fill="url(#paint27_linear_8_110)"/>
<path fill-rule="evenodd" clip-rule="evenodd" d="M487.104 104.837C487.273 104.229 487.407 103.612 487.504 102.988C490.246 91.644 493.032 72.231 492.676 60.986C492.401 52.395 488.222 45.122 478.148 47.925C475.05 48.78 471.469 51.139 471.019 55.215C470.47 60.097 471.2 68.205 471.66 76.488C472.028 83.103 472 95.045 472.253 99.883C472.209 100.032 472.165 100.18 472.127 100.333C468.902 106.757 461.394 127.728 459.82 134.535C459.557 135.671 459.82 136.894 459.82 137.679C459.747 138.573 459.468 139.439 459.003 140.207C460.963 141.967 463.343 143.193 465.913 143.768C466.316 142.901 466.787 142.068 467.323 141.277C467.756 140.608 469.774 139.977 470.564 139.039C474.737 134.036 485.749 111.162 487.098 105.078C487.104 105.001 487.104 104.919 487.104 104.837Z" fill="url(#paint28_linear_8_110)"/>
<path opacity="0.3" fill-rule="evenodd" clip-rule="evenodd" d="M326.2 689.274L417.648 637.162C427.618 632.603 441.887 628.978 452.044 634.266C461.296 639.082 476.541 648.945 483.303 652.79C488.42 655.708 506.194 666.361 495.127 672.379C462.557 690.092 430.332 710.015 397.263 728.007C391.006 731.408 381.858 732.643 372.256 731.847C362.653 731.052 352.886 728.271 345.17 723.778C339.686 720.586 334.28 717.439 328.953 714.338C321.78 710.163 317.985 705.221 317.601 700.657C317.218 696.208 320.08 692.066 326.2 689.274Z" fill="#955CF1"/>
<path fill-rule="evenodd" clip-rule="evenodd" d="M359.9 686.515C361.688 686.471 367.72 680.799 373.44 683.663C380.301 687.102 393.337 684.058 399.912 685.637C401.086 685.917 403.378 685.056 403.828 685.862C405.248 688.38 406.619 692.154 403.131 694.639C400.57 696.455 395.075 698.857 391.478 700.125C387.639 701.48 381.113 703.613 376.731 704.299C371.872 705.056 369.656 705.396 367.841 706.773C365.242 708.084 362.56 708.644 361.057 708.419C357.855 707.909 354.125 706.033 352.414 702.385C351.866 701.216 351.866 696.12 352.48 692.812C352.979 690.201 354.4 687.228 355.54 684.453L359.9 686.515Z" fill="white"/>
<path fill-rule="evenodd" clip-rule="evenodd" d="M373.939 674.31C371.746 679.526 372.431 687.596 367.287 690.399C363.849 692.269 358.458 692.286 356.11 686.937C354.8 683.953 356.544 678.863 356.154 672.313L373.939 674.31Z" fill="#FFA495"/>
<path fill-rule="evenodd" clip-rule="evenodd" d="M375.371 682.39C379.314 683.536 390.178 682.768 397.082 683.322C400.044 683.564 402.692 683.542 404.08 686.23C405.352 688.698 404.683 690.821 401.804 692.856C399.237 694.672 394.889 696.74 391.286 698.018C387.447 699.373 380.921 701.507 376.539 702.193C371.68 702.955 369.47 703.29 367.649 704.672C365.05 705.978 362.368 706.543 360.871 706.318C359.027 706 357.285 705.254 355.782 704.139C354.28 703.024 353.061 701.572 352.222 699.9C351.674 698.731 351.674 694.014 352.294 690.706C352.422 690.047 352.59 689.397 352.798 688.759C353.347 683.58 355.052 681.485 356.664 682.368C358.858 683.586 359.703 685.769 360.542 687.563C360.811 688.225 361.218 688.822 361.735 689.316C362.252 689.809 362.868 690.188 363.541 690.426C366.179 691.26 368.592 689.784 370.122 687.519C370.986 685.87 371.596 684.1 371.932 682.269C371.932 682.094 371.932 681.918 371.932 681.721C372.448 677.195 374.674 677.585 374.318 678.545C373.961 679.505 374.175 681.463 375.371 682.39Z" fill="#193161"/>
<path fill-rule="evenodd" clip-rule="evenodd" d="M402.703 685.467C402.648 687.217 405.33 687.382 404.557 690.459C405.846 689.197 404.047 685.566 403.252 685.012C402.923 684.787 402.648 684.688 402.703 685.467Z" fill="white"/>
<path fill-rule="evenodd" clip-rule="evenodd" d="M404.76 668.561C406.405 667.903 410.14 660.503 416.491 661.221C419.057 661.512 423.176 660.848 427.355 659.658C434.023 657.76 443.313 651.797 444.904 652.774C448.359 654.902 448.638 658.775 446.214 662.291C444.426 664.88 441.054 668.325 438.114 670.761C434.988 673.344 430.563 677.305 426.68 679.455C423.011 681.49 421.794 681.309 419.183 684.836C417.198 686.959 414.867 688.227 413.381 688.517C409.542 689.258 404.058 686.811 402.04 684.255C400.773 680.152 398.574 676.268 399.983 670.113L404.76 668.561Z" fill="white"/>
<path fill-rule="evenodd" clip-rule="evenodd" d="M413.567 651.084C413.463 656.734 417.05 663.992 413.293 668.49C410.782 671.496 405.78 673.492 401.634 669.384C399.32 667.091 399.062 661.704 396.298 655.769L413.567 651.084Z" fill="#FFA495"/>
<path fill-rule="evenodd" clip-rule="evenodd" d="M425.643 657.974C426.027 657.875 426.406 657.771 426.784 657.661C433.453 655.763 442.364 651.166 443.949 652.143C447.404 654.271 448.062 656.778 445.638 660.294C443.85 662.884 440.478 666.328 437.533 668.758C434.412 671.348 429.987 675.303 426.104 677.458C422.435 679.494 421.218 679.313 418.607 682.84C416.622 684.963 414.291 686.23 412.805 686.515C408.966 687.261 403.29 684.793 401.288 682.236C400.345 679.181 399.051 676.274 398.947 672.434C398.398 667.415 398.738 664.858 400.921 664.919C404.985 665.039 406.663 667.179 408.341 668.21C411.955 670.464 414.373 667.552 414.971 663.948C415.041 662.353 414.929 660.756 414.637 659.186C414.584 659.018 414.521 658.854 414.45 658.693C413.266 654.304 415.459 653.849 415.503 654.853C415.482 655.796 415.814 656.712 416.434 657.423C417.054 658.133 417.917 658.586 418.854 658.693C421.07 659.049 423.861 658.122 425.643 657.974Z" fill="#193161"/>
<path fill-rule="evenodd" clip-rule="evenodd" d="M443.538 652.708C444.245 654.31 446.735 653.306 447.377 656.416C447.997 654.716 444.805 652.22 443.851 652.061C443.45 652 443.154 652.033 443.538 652.708Z" fill="white"/>
<path fill-rule="evenodd" clip-rule="evenodd" d="M409.723 498.532C411.187 514.895 419.386 567.172 417.105 581.522C413.677 603.102 414.653 629.17 414.692 652.077C414.143 661.699 400.883 666.729 397.033 660.612C393.945 640.146 389.547 622.214 387.759 610.842C385.752 598.111 386.416 582.636 389.646 574.265C388.319 565.121 382.089 541.533 376.884 525.186C375.003 519.289 364.359 500.233 375.376 481.302L409.723 498.532Z" fill="url(#paint29_linear_8_110)"/>
<path fill-rule="evenodd" clip-rule="evenodd" d="M414.906 645.933C414.906 647.628 414.856 650.217 414.856 651.885C414.308 661.507 400.883 666.729 397.033 660.612C396.808 659.104 396.485 657.606 396.238 656.131C401.415 661.71 411.56 654.463 414.906 645.933Z" fill="url(#paint30_linear_8_110)"/>
<g style="mix-blend-mode:multiply" opacity="0.3">
<g style="mix-blend-mode:multiply">
<path fill-rule="evenodd" clip-rule="evenodd" d="M417.456 571.78C413.14 593.42 400.938 622.329 394.28 644.09C390.814 625.439 382.138 593.695 389.64 574.265C388.889 569.054 386.542 559.163 383.696 548.593C389.47 537.622 383.953 528.905 386.679 513.486C401.963 510.82 378.897 492.163 411.237 511.812C414.165 535.044 416.852 549.646 417.456 571.78Z" fill="#1E2353"/>
</g>
</g>
<path fill-rule="evenodd" clip-rule="evenodd" d="M408.681 592.307C399.863 612.274 383.597 651.441 374.943 675.944C370.468 682.45 354.504 681.77 354.537 675.703C358.063 655.215 362.214 623.618 369.552 605.653C371.806 600.168 380.109 586.92 383.098 582.992C385.429 573.952 388.341 549.531 390.595 536.316C388.576 525.384 379.758 507.1 396.698 491.209C403.532 496.075 424.667 499.113 434.248 493.699C435.789 536.892 425.188 554.901 408.681 592.307Z" fill="url(#paint31_linear_8_110)"/>
<path fill-rule="evenodd" clip-rule="evenodd" d="M376.725 671.671C376.341 672.768 375.574 674.902 375.212 675.928C370.605 682.626 354.175 681.929 354.202 675.681C354.378 674.672 354.553 673.63 354.751 672.571C358.65 676.564 370.495 676.614 376.725 671.671Z" fill="url(#paint32_linear_8_110)"/>
<path fill-rule="evenodd" clip-rule="evenodd" d="M462.727 259.166C462.096 260.488 461.498 261.827 460.84 263.138L458.148 268.53C457.599 265.886 455.46 264.877 453.837 266.21C453.263 266.682 452.812 267.286 452.521 267.971C452.263 267.252 450.223 265.623 447.459 269.55C445.737 269.364 444.827 270.099 444.103 271.487C443.652 272.4 443.265 273.344 442.946 274.312C442.454 275.535 442.182 276.834 442.14 278.152C442.14 280.752 442.271 283.577 442.194 286.682C442.118 290.055 438.29 294.328 436.211 296.786L448.731 300.757C450.645 298.355 451.676 296.616 453.607 294.663C455.537 292.71 458.054 292.43 459.93 290.894C460.977 290.039 461.575 288.898 463.363 286.374C464.838 284.284 465.644 282.024 467.054 279.737C468.463 277.449 468.337 277.888 468.48 275.233C468.584 273.182 469.247 271.158 469.417 269.912C466.845 268.629 464.816 271.805 464.838 274.899C463.363 275.727 462.398 277.762 462.063 278.667C460.018 275.99 461.235 274.871 462.063 271.437C463.291 269.254 464.278 266.944 465.008 264.548C465.408 263.489 465.809 262.392 466.237 261.207C466.818 259.281 466.072 257.916 465.491 257.537C465.014 257.219 463.769 257.367 462.727 259.166Z" fill="url(#paint33_linear_8_110)"/>
<path fill-rule="evenodd" clip-rule="evenodd" d="M467.942 269.638C466.11 269.901 464.822 272.425 464.838 274.893C463.456 275.672 462.524 277.499 462.134 278.475C462.886 277.51 464.8 275.442 465.425 275.184C465.617 272.809 466.467 270.856 467.942 269.627V269.638ZM458.378 268.069L458.148 268.53C458.025 267.943 457.792 267.385 457.462 266.884C457.329 268.37 456.701 269.769 455.68 270.856C456.309 270.625 456.878 270.256 457.345 269.776C457.812 269.295 458.165 268.716 458.378 268.08V268.069ZM452.504 267.932C452.36 267.644 452.13 267.409 451.846 267.257C451.598 268.529 451.12 269.744 450.437 270.845C451.406 270.107 452.128 269.091 452.504 267.932ZM447.519 269.468L447.459 269.55C447.193 269.523 446.925 269.523 446.658 269.55C446.537 270.994 446.031 272.378 445.194 273.56C446.521 272.249 447.19 271.372 447.519 269.468Z" fill="#FF8978"/>
<path fill-rule="evenodd" clip-rule="evenodd" d="M415.448 331.509C421.75 320.538 426.685 306.775 435.487 295.623C436.222 294.69 437.95 293.977 438.58 293.001C439.502 291.582 440.416 290.189 441.322 288.821C445.446 288.892 450.514 291.015 453.991 294.531C453.497 295.994 453.013 297.457 452.537 298.92C451.989 300.615 453.047 304.241 452.537 305.936C448.512 320.345 443.35 334.412 437.099 348.004C428.369 359.266 389.569 431.587 369.283 405.344C367.457 396.019 369.925 388.246 374.619 380.692C377.219 376.512 381.167 372.864 383.827 370.105C390.238 363.495 405.873 341.389 415.448 331.509Z" fill="url(#paint34_linear_8_110)"/>
<path fill-rule="evenodd" clip-rule="evenodd" d="M372.283 439.886C373.704 452.69 369.854 465.284 373.769 476.974C373.945 478.186 374.06 482.926 374.263 484.215C376.846 499.36 408.873 514.687 435.586 500.123C435.734 498.247 435.586 496.283 435.707 492.805C435.213 489.558 436.617 486.074 436.606 484.094C436.568 475.866 434.007 471.637 435.235 462.465C437.736 443.814 448.073 425.876 442.364 411.197C441.141 408.043 438.986 406.518 436.551 404.56C430.239 399.486 397.614 382.859 387.693 381.685C358.951 377.988 370.742 425.992 372.283 439.886Z" fill="url(#paint35_linear_8_110)"/>
<g style="mix-blend-mode:multiply" opacity="0.35">
<g style="mix-blend-mode:multiply">
<path fill-rule="evenodd" clip-rule="evenodd" d="M438.125 448.97C441.832 435.257 446.675 422.311 442.353 411.225C441.131 408.07 438.975 406.545 436.54 404.587C430.228 399.513 431.056 413.156 421.185 411.982C419.265 430.21 428.276 446.793 438.125 448.97Z" fill="#6266D7"/>
</g>
</g>
<path fill-rule="evenodd" clip-rule="evenodd" d="M418.004 375.98C417.66 381.233 417.904 386.509 418.734 391.707C409.378 391.406 396.369 388.964 394.949 381.987C395.02 381.148 395.075 380.303 395.119 379.469C394.999 379.361 394.871 379.261 394.735 379.173C391.384 376.94 385.835 375.284 382.264 371.202C376.561 364.68 373.534 355.92 378.009 347.099C386.18 330.994 405.945 330.725 416.946 343.742C419.096 346.287 417.494 348.92 418.745 351.378C418.986 351.855 419.841 352.069 420.883 352.914C422.293 354.077 426.4 364.143 426.296 369.398C426.252 371.515 421.393 374.494 419.233 375.662C418.837 375.816 418.425 375.922 418.004 375.98Z" fill="#FFA698"/>
<path fill-rule="evenodd" clip-rule="evenodd" d="M418.004 375.98C417.66 381.233 417.904 386.509 418.733 391.707C409.378 391.406 396.369 388.964 394.949 381.987C395.02 381.148 395.075 380.303 395.119 379.469C394.993 379.359 394.85 379.277 394.735 379.173C387.606 372.513 397.137 364.91 409.158 371.455C410.056 372.967 411.363 374.194 412.928 374.994C414.493 375.795 416.253 376.137 418.004 375.98Z" fill="url(#paint36_linear_8_110)"/>
<path fill-rule="evenodd" clip-rule="evenodd" d="M426.274 369.398C426.23 370.325 422.402 371.718 420.79 371.932C421.887 361.987 412.416 360.467 413.842 350.752C414.697 344.916 408.698 342.804 411.05 338.531C413.245 339.976 415.22 341.731 416.913 343.742C419.063 346.287 417.461 348.92 418.712 351.378C418.953 351.855 419.808 352.069 420.85 352.914C422.271 354.077 426.515 364.148 426.274 369.398Z" fill="url(#paint37_linear_8_110)"/>
<path fill-rule="evenodd" clip-rule="evenodd" d="M413.376 365.355C413.195 363.128 412.279 362.7 411.544 363.292C410.809 363.885 410.025 365.87 410.25 368.163C410.612 371.855 414.039 375.168 416.397 372.179C413.814 373.55 412.602 370.237 412.493 367.9C412.416 366.315 412.816 364.982 413.376 365.355Z" fill="#FFB49C"/>
<path fill-rule="evenodd" clip-rule="evenodd" d="M412.553 366.781C413.929 367.818 414.56 368.52 414.538 369.107C414.538 369.513 414.187 370.122 412.98 369.694C412.563 368.784 412.414 367.773 412.553 366.781Z" fill="#FF9D8E"/>
<path fill-rule="evenodd" clip-rule="evenodd" d="M394.812 381.735C392.07 382.59 389.454 385.437 389.958 387.264C392.7 398.531 413.364 401.049 426.203 398.334C426.362 398.301 421.399 391.751 418.942 390.939C410.875 391.762 397.302 388.388 394.812 381.735Z" fill="#726CDE"/>
<path fill-rule="evenodd" clip-rule="evenodd" d="M393.819 381.038C390.392 377.385 384.6 375.64 380.882 371.389C377.164 367.138 373.205 360.758 375.656 354.148C371.34 340.571 386.076 329.798 398.519 327.351C407.414 325.601 412.728 335.141 408.868 341.613C412.196 345.344 412.087 350.275 411.856 351.542C411.143 355.421 411.242 355.931 412.482 358.811C413.463 361.104 415.904 366.644 411.483 363.133C408.632 360.868 406.636 365.876 407.601 369.337C408.282 371.5 408.494 373.784 408.22 376.035C407.392 383.281 395.722 383.073 393.819 381.038Z" fill="#562E65"/>
<path fill-rule="evenodd" clip-rule="evenodd" d="M379.775 348.004C376.83 334.839 394.121 328.19 400.883 328.031C407.727 327.878 413.09 339.14 404.974 342.936C399.446 345.519 388.483 340.462 379.775 348.004Z" fill="url(#paint38_linear_8_110)"/>
<path fill-rule="evenodd" clip-rule="evenodd" d="M516.855 366.627C516.537 367.481 516.352 368.378 516.306 369.288C515.746 370.586 515.316 371.937 515.023 373.32C514.601 375.448 514.76 377.127 514.694 379.963C514.696 381.344 514.892 382.717 515.275 384.044C513.63 387.291 511.003 389.288 508.563 391.965L516.465 397.999C519.8 395.805 522.405 393.484 525.278 391.576C527.609 390.654 528.426 390.133 529.117 389.381C530.949 387.472 536.34 381.8 536.647 379.573C536.992 377.094 536.334 371.345 535.775 368.229C534.343 360.215 531.294 351.8 530.768 355.514C530.006 356.402 530.631 363.643 530.148 364.718C528.278 366.874 527.406 367.757 525.042 370.33C523.589 371.158 522.629 372.02 521.927 372.212C521.116 372.431 520.672 371.866 520.644 371.153C520.617 370.44 521.121 368.959 521.538 366.885C521.538 363.451 520.688 361.504 518.851 361.685C518.42 361.705 518.01 361.878 517.695 362.173C517.38 362.467 517.179 362.864 517.129 363.292C516.937 364.115 516.986 365.223 516.855 366.627Z" fill="url(#paint39_linear_8_110)"/>
<path fill-rule="evenodd" clip-rule="evenodd" d="M437.199 400.254C448.079 401.932 469.078 413.907 483.567 420.396C491.65 408.877 502.251 395.075 508.793 390.429C509.545 389.881 511.459 388.783 512.045 388.092C512.994 386.929 513.921 385.733 514.787 384.505C518.873 385.053 524.796 390.177 524.719 392.585C524.061 393.792 523.387 395.053 522.706 396.353C522.246 397.242 522.416 399.189 522.158 400.193C519.964 408.257 507.708 426.886 502.004 435.202C498.714 440.002 497.551 442.821 495.319 444.253C491.738 446.557 486.934 445.301 477.677 442.975C469.889 441.016 444.739 436.436 433.168 430.331C425.007 426.025 418.745 418.263 421.986 409.332C424.037 403.605 430.19 399.173 437.199 400.254Z" fill="url(#paint40_linear_8_110)"/>
<path opacity="0.5" fill-rule="evenodd" clip-rule="evenodd" d="M736.63 67.738C729.5 63.8 721.982 69.115 722.058 79.401C722.091 84.727 724.351 90.207 727.916 93.663C728.779 94.504 729.746 95.23 730.795 95.824C737.891 99.757 745.393 94.442 745.338 84.206C745.338 78.868 743.079 73.367 739.531 69.944C738.661 69.091 737.686 68.354 736.63 67.749V67.738ZM729.78 100.651C728.373 99.857 727.073 98.886 725.914 97.761C721.115 93.153 718.11 85.769 718.039 78.605C717.951 64.809 728.069 57.634 737.622 62.933C739.053 63.739 740.371 64.729 741.543 65.879C746.326 70.476 749.331 77.859 749.364 85.029C749.424 98.786 739.322 105.945 729.78 100.651ZM762.323 88.929C763.968 89.856 764.977 92.275 764.516 94.36L762.778 102.44C762.334 104.502 760.623 105.424 758.939 104.502L758.089 104.031C757.81 103.858 757.499 103.746 757.174 103.699C756.85 103.653 756.519 103.674 756.204 103.761C755.888 103.848 755.593 103.999 755.338 104.205C755.083 104.411 754.873 104.667 754.722 104.958C754.25 105.752 753.733 106.519 753.175 107.256C752.309 108.392 752.166 110.207 752.83 111.831L753.279 112.928C754.135 115.013 753.619 117.393 752.144 118.194L746.336 121.326C745.968 121.518 745.556 121.612 745.141 121.597C744.726 121.583 744.322 121.461 743.967 121.244C743.096 120.716 742.428 119.91 742.07 118.957L741.615 117.887C741.26 116.945 740.597 116.15 739.734 115.632C739.307 115.388 738.822 115.263 738.33 115.27C737.502 115.27 736.685 115.243 735.829 115.166C734.496 115.04 733.378 115.989 733.038 117.569L732.813 118.622C732.369 120.679 730.663 121.606 728.974 120.685L722.453 117.064C720.808 116.143 719.799 113.723 720.26 111.661L720.49 110.608C720.643 109.786 720.607 108.941 720.386 108.135C720.165 107.329 719.763 106.584 719.212 105.956C718.51 105.183 717.858 104.382 717.205 103.559C716.869 103.112 716.445 102.739 715.96 102.462C715.61 102.245 715.21 102.123 714.798 102.108C714.387 102.093 713.978 102.184 713.613 102.374L712.851 102.769C712.481 102.961 712.069 103.054 711.653 103.04C711.237 103.025 710.831 102.904 710.476 102.687C709.604 102.16 708.935 101.354 708.579 100.399L705.189 92.116C704.334 90.026 704.849 87.645 706.319 86.85L707.092 86.428C708.238 85.808 708.825 84.233 708.584 82.489C708.425 81.392 708.315 80.262 708.244 79.148C708.14 77.426 707.229 75.791 705.957 75.084L705.107 74.612C703.462 73.69 702.453 71.271 702.913 69.209L704.652 61.128C705.102 59.044 706.813 58.117 708.491 59.044L709.341 59.51C709.62 59.683 709.931 59.796 710.255 59.843C710.58 59.89 710.911 59.869 711.227 59.782C711.543 59.695 711.838 59.544 712.093 59.337C712.348 59.131 712.557 58.874 712.708 58.583C713.18 57.79 713.696 57.025 714.255 56.29C715.116 55.193 715.258 53.361 714.595 51.737L714.145 50.64C713.295 48.534 713.805 46.169 715.286 45.352L721.137 42.187C721.506 41.997 721.918 41.905 722.333 41.92C722.748 41.936 723.152 42.058 723.506 42.275C724.378 42.8 725.046 43.604 725.404 44.557L725.853 45.654C726.208 46.596 726.871 47.391 727.734 47.908C728.16 48.157 728.646 48.283 729.138 48.27C729.975 48.251 730.811 48.279 731.645 48.353C732.977 48.506 734.091 47.557 734.431 45.977L734.655 44.924C735.105 42.84 736.816 41.918 738.494 42.84L745.02 46.46C746.666 47.382 747.675 49.801 747.214 51.88L746.989 52.938C746.834 53.754 746.867 54.594 747.087 55.395C747.306 56.196 747.706 56.935 748.256 57.557C748.958 58.329 749.631 59.139 750.274 59.987C750.609 60.435 751.033 60.808 751.519 61.084C751.869 61.3 752.269 61.422 752.68 61.438C753.091 61.455 753.5 61.365 753.866 61.178L754.639 60.761C755.008 60.569 755.42 60.476 755.835 60.49C756.25 60.505 756.654 60.626 757.009 60.843C757.88 61.37 758.55 62.173 758.911 63.125L762.295 71.414C763.145 73.526 762.641 75.884 761.16 76.702L760.387 77.119C759.241 77.738 758.654 79.313 758.901 81.041C759.054 82.138 759.167 83.25 759.241 84.376C759.267 85.188 759.489 85.982 759.888 86.69C760.287 87.397 760.852 87.998 761.533 88.441L762.323 88.929Z" fill="white"/>
<path fill-rule="evenodd" clip-rule="evenodd" d="M69.013 48.671C68.284 53.679 64.362 55.95 60.2384 53.652C56.1144 51.353 53.312 45.369 54.0414 40.36C54.7708 35.352 58.6755 33.229 62.8927 35.555C67.028 37.848 69.759 43.701 69.029 48.671H69.013ZM46.2924 93.164C47.0218 88.156 50.9264 85.989 55.1437 88.32C59.361 90.651 62.0153 96.466 61.2804 101.485C60.5456 106.505 56.6299 108.759 52.5059 106.461C48.3819 104.162 45.574 98.178 46.3088 93.175L46.2924 93.164ZM20.4075 50.344C19.6836 55.319 15.6967 57.448 11.5617 55.155C7.42673 52.862 4.69013 47.009 5.41953 42.033C6.14893 37.058 10.0974 34.776 14.194 37.058C18.2906 39.34 21.1259 45.341 20.391 50.344H20.4075ZM63.809 29.17C56.7615 25.259 50.0051 28.906 48.7547 37.431V38.062L24.1915 41.902C22.4476 37.102 19.212 32.988 15.1537 30.739C8.10673 26.833 1.44353 30.569 0.198629 39.088C-1.03527 47.513 3.60433 57.585 10.6513 61.49C14.7095 63.745 18.5868 63.471 21.3672 61.183L41.1757 89.746L41.0277 90.202C39.7773 98.721 44.5375 108.759 51.579 112.665C58.6206 116.57 65.289 112.862 66.534 104.343C67.768 95.918 63.052 85.775 56.0815 81.908C51.0746 79.132 46.2705 80.202 43.4352 84.008L24.6686 56.658C25.1747 55.56 25.4988 54.387 25.6284 53.185C25.8564 51.848 25.9044 50.487 25.771 49.137L49.1277 45.138C50.4987 51.309 54.2937 57.113 59.3116 59.894C66.276 63.734 73.022 60.064 74.267 51.545C75.512 43.026 70.773 33.043 63.809 29.17Z" fill="url(#paint41_linear_8_110)"/>
<defs>
<linearGradient id="paint0_linear_8_110" x1="503.013" y1="117.02" x2="503.002" y2="187.882" gradientUnits="userSpaceOnUse">
<stop stop-color="#324179"/>
<stop offset="1" stop-color="#0C124D"/>
</linearGradient>
<linearGradient id="paint1_linear_8_110" x1="514.809" y1="121.54" x2="514.76" y2="242.249" gradientUnits="userSpaceOnUse">
<stop stop-color="#324179"/>
<stop offset="1" stop-color="#0C124D"/>
</linearGradient>
<linearGradient id="paint2_linear_8_110" x1="571.58" y1="241.037" x2="495.56" y2="702.307" gradientUnits="userSpaceOnUse">
<stop stop-color="#D1E8FF"/>
<stop offset="1" stop-color="#EAEFFF"/>
</linearGradient>
<linearGradient id="paint3_linear_8_110" x1="615.683" y1="153.74" x2="438.294" y2="721.854" gradientUnits="userSpaceOnUse">
<stop stop-color="#6D6AFE"/>
<stop offset="1" stop-color="#3FB0F7"/>
</linearGradient>
<linearGradient id="paint4_linear_8_110" x1="697.259" y1="524.928" x2="742.023" y2="430.8" gradientUnits="userSpaceOnUse">
<stop stop-color="#965CF2"/>
<stop offset="1" stop-color="#FF8ADC"/>
</linearGradient>
<linearGradient id="paint5_linear_8_110" x1="691.463" y1="358.427" x2="774.389" y2="237.321" gradientUnits="userSpaceOnUse">
<stop stop-color="#965CF2"/>
<stop offset="1" stop-color="#FF8ADC"/>
</linearGradient>
<linearGradient id="paint6_linear_8_110" x1="301.39" y1="481.9" x2="353.385" y2="368.525" gradientUnits="userSpaceOnUse">
<stop stop-color="#965CF2"/>
<stop offset="1" stop-color="#FF8ADC"/>
</linearGradient>
<linearGradient id="paint7_linear_8_110" x1="238.049" y1="358.405" x2="217.452" y2="417.436" gradientUnits="userSpaceOnUse">
<stop stop-color="#1C8EF4"/>
<stop offset="1" stop-color="#00CFDD"/>
</linearGradient>
<linearGradient id="paint8_linear_8_110" x1="308.01" y1="194.404" x2="350.126" y2="53.592" gradientUnits="userSpaceOnUse">
<stop stop-color="#965CF2"/>
<stop offset="1" stop-color="#FF8ADC"/>
</linearGradient>
<linearGradient id="paint9_linear_8_110" x1="295.928" y1="52.637" x2="247.925" y2="210.267" gradientUnits="userSpaceOnUse">
<stop stop-color="#6D6AFE"/>
<stop offset="1" stop-color="#3FB0F7"/>
</linearGradient>
<linearGradient id="paint10_linear_8_110" x1="700.934" y1="494.434" x2="715.012" y2="467.092" gradientUnits="userSpaceOnUse">
<stop stop-color="#965CF2"/>
<stop offset="1" stop-color="#FF8ADC"/>
</linearGradient>
<linearGradient id="paint11_linear_8_110" x1="531.503" y1="535.652" x2="497.626" y2="588.349" gradientUnits="userSpaceOnUse">
<stop stop-color="#FF66BC"/>
<stop offset="0.56" stop-color="#FF8ADC"/>
<stop offset="1" stop-color="#FFBBA8"/>
</linearGradient>
<linearGradient id="paint12_linear_8_110" x1="540.601" y1="554.512" x2="452.29" y2="558.3" gradientUnits="userSpaceOnUse">
<stop stop-color="#FF66BC"/>
<stop offset="0.56" stop-color="#FF8ADC"/>
<stop offset="1" stop-color="#FFBBA8"/>
</linearGradient>
<linearGradient id="paint13_linear_8_110" x1="661.69" y1="668.517" x2="677.99" y2="623.731" gradientUnits="userSpaceOnUse">
<stop stop-color="#965CF2"/>
<stop offset="1" stop-color="#FF8ADC"/>
</linearGradient>
<linearGradient id="paint14_linear_8_110" x1="665.923" y1="687.162" x2="659.97" y2="575.538" gradientUnits="userSpaceOnUse">
<stop stop-color="#965CF2"/>
<stop offset="1" stop-color="#FF8ADC"/>
</linearGradient>
<linearGradient id="paint15_linear_8_110" x1="445.874" y1="8.56102" x2="445.99" y2="88.605" gradientUnits="userSpaceOnUse">
<stop stop-color="#5A2D68"/>
<stop offset="1" stop-color="#22043D"/>
</linearGradient>
<linearGradient id="paint16_linear_8_110" x1="448.112" y1="145.254" x2="444.684" y2="144.037" gradientUnits="userSpaceOnUse">
<stop stop-color="#FF8A78"/>
<stop offset="1" stop-color="#FFA799"/>
</linearGradient>
<linearGradient id="paint17_linear_8_110" x1="449.768" y1="118.013" x2="449.291" y2="49.285" gradientUnits="userSpaceOnUse">
<stop stop-color="#965CF2"/>
<stop offset="1" stop-color="#FF8ADC"/>
</linearGradient>
<linearGradient id="paint18_linear_8_110" x1="493.493" y1="102.275" x2="477.088" y2="50.116" gradientUnits="userSpaceOnUse">
<stop stop-color="#965CF2"/>
<stop offset="1" stop-color="#FF8ADC"/>
</linearGradient>
<linearGradient id="paint19_linear_8_110" x1="453.037" y1="43.004" x2="457.189" y2="48.044" gradientUnits="userSpaceOnUse">
<stop stop-color="#FF8A78"/>
<stop offset="1" stop-color="#FFA799"/>
</linearGradient>
<linearGradient id="paint20_linear_8_110" x1="511.831" y1="414.423" x2="431.906" y2="100.08" gradientUnits="userSpaceOnUse">
<stop stop-color="#965CF2"/>
<stop offset="1" stop-color="#FF8ADC"/>
</linearGradient>
<linearGradient id="paint21_linear_8_110" x1="517.167" y1="188.963" x2="488.662" y2="229.483" gradientUnits="userSpaceOnUse">
<stop stop-color="#6D6AFE"/>
<stop offset="1" stop-color="#3FB0F7"/>
</linearGradient>
<linearGradient id="paint22_linear_8_110" x1="425.698" y1="240.477" x2="419.038" y2="249.9" gradientUnits="userSpaceOnUse">
<stop stop-color="#6D6AFE"/>
<stop offset="1" stop-color="#3FB0F7"/>
</linearGradient>
<linearGradient id="paint23_linear_8_110" x1="431.122" y1="239.868" x2="410.712" y2="255.343" gradientUnits="userSpaceOnUse">
<stop stop-color="#6D6AFE"/>
<stop offset="1" stop-color="#3FB0F7"/>
</linearGradient>
<linearGradient id="paint24_linear_8_110" x1="708.754" y1="233.313" x2="678.621" y2="333.738" gradientUnits="userSpaceOnUse">
<stop stop-color="#6D6AFE"/>
<stop offset="1" stop-color="#3FB0F7"/>
</linearGradient>
<linearGradient id="paint25_linear_8_110" x1="685.765" y1="282.321" x2="699.591" y2="239.81" gradientUnits="userSpaceOnUse">
<stop stop-color="#965CF2"/>
<stop offset="1" stop-color="#FF8ADC"/>
</linearGradient>
<linearGradient id="paint26_linear_8_110" x1="683.577" y1="280.313" x2="696.178" y2="258.856" gradientUnits="userSpaceOnUse">
<stop stop-color="#6D6AFE"/>
<stop offset="1" stop-color="#3FB0F7"/>
</linearGradient>
<linearGradient id="paint27_linear_8_110" x1="460.999" y1="155.836" x2="458.125" y2="154.509" gradientUnits="userSpaceOnUse">
<stop stop-color="#FF8A78"/>
<stop offset="1" stop-color="#FFA799"/>
</linearGradient>
<linearGradient id="paint28_linear_8_110" x1="478.357" y1="127.41" x2="472.25" y2="61.781" gradientUnits="userSpaceOnUse">
<stop stop-color="#965CF2"/>
<stop offset="1" stop-color="#FF8ADC"/>
</linearGradient>
<linearGradient id="paint29_linear_8_110" x1="403.592" y1="521.467" x2="382.336" y2="623.111" gradientUnits="userSpaceOnUse">
<stop stop-color="#40457F"/>
<stop offset="1" stop-color="#1E2353"/>
</linearGradient>
<linearGradient id="paint30_linear_8_110" x1="408.264" y1="651.485" x2="400.288" y2="662.931" gradientUnits="userSpaceOnUse">
<stop stop-color="#3773B9"/>
<stop offset="1" stop-color="#003C76"/>
</linearGradient>
<linearGradient id="paint31_linear_8_110" x1="422.523" y1="532.943" x2="350.065" y2="631.741" gradientUnits="userSpaceOnUse">
<stop stop-color="#40457F"/>
<stop offset="1" stop-color="#1E2353"/>
</linearGradient>
<linearGradient id="paint32_linear_8_110" x1="367.419" y1="674.825" x2="355.364" y2="677.907" gradientUnits="userSpaceOnUse">
<stop stop-color="#3773B9"/>
<stop offset="1" stop-color="#003C76"/>
</linearGradient>
<linearGradient id="paint33_linear_8_110" x1="442.88" y1="294.411" x2="458.136" y2="272.615" gradientUnits="userSpaceOnUse">
<stop stop-color="#FF8A78"/>
<stop offset="1" stop-color="#FFA799"/>
</linearGradient>
<linearGradient id="paint34_linear_8_110" x1="411.11" y1="348.915" x2="428.743" y2="382" gradientUnits="userSpaceOnUse">
<stop stop-color="#A77EF7"/>
<stop offset="1" stop-color="#5E65D6"/>
</linearGradient>
<linearGradient id="paint35_linear_8_110" x1="407.672" y1="402.519" x2="397.203" y2="494.275" gradientUnits="userSpaceOnUse">
<stop stop-color="#A77EF7"/>
<stop offset="1" stop-color="#5E65D6"/>
</linearGradient>
<linearGradient id="paint36_linear_8_110" x1="408.22" y1="375.799" x2="404.956" y2="383.994" gradientUnits="userSpaceOnUse">
<stop stop-color="#FF8A78"/>
<stop offset="1" stop-color="#FFA799"/>
</linearGradient>
<linearGradient id="paint37_linear_8_110" x1="419.26" y1="352.864" x2="414.454" y2="362.09" gradientUnits="userSpaceOnUse">
<stop stop-color="#FFB89E"/>
<stop offset="1" stop-color="#FFA799"/>
</linearGradient>
<linearGradient id="paint38_linear_8_110" x1="409.076" y1="330.412" x2="387.85" y2="342.569" gradientUnits="userSpaceOnUse">
<stop stop-color="#8A4791"/>
<stop offset="1" stop-color="#562E65"/>
</linearGradient>
<linearGradient id="paint39_linear_8_110" x1="516.657" y1="385.212" x2="530.888" y2="366.423" gradientUnits="userSpaceOnUse">
<stop stop-color="#FF8A78"/>
<stop offset="1" stop-color="#FFA799"/>
</linearGradient>
<linearGradient id="paint40_linear_8_110" x1="472.368" y1="392.184" x2="476.675" y2="479.601" gradientUnits="userSpaceOnUse">
<stop stop-color="#A77EF7"/>
<stop offset="1" stop-color="#5E65D6"/>
</linearGradient>
<linearGradient id="paint41_linear_8_110" x1="32.7851" y1="72.703" x2="52.9249" y2="38.845" gradientUnits="userSpaceOnUse">
<stop stop-color="#6D6AFE"/>
<stop offset="1" stop-color="#3FB0F7"/>
</linearGradient>
</defs>
</svg>
